<?xml version="1.0" encoding="UTF-8" standalone="no"?>
<svg
   xmlns:dc="http://purl.org/dc/elements/1.1/"
   xmlns:cc="http://creativecommons.org/ns#"
   xmlns:rdf="http://www.w3.org/1999/02/22-rdf-syntax-ns#"
   xmlns:svg="http://www.w3.org/2000/svg"
   xmlns="http://www.w3.org/2000/svg"
   id="svg1454"
   version="1.1"
   viewBox="0 0 29.143509 41.225635"
   height="41.225636mm"
   width="29.143509mm">
  <defs
     id="defs1448" />
  <metadata
     id="metadata1451">
    <rdf:RDF>
      <cc:Work
         rdf:about="">
        <dc:format>image/svg+xml</dc:format>
        <dc:type
           rdf:resource="http://purl.org/dc/dcmitype/StillImage" />
        <dc:title></dc:title>
      </cc:Work>
    </rdf:RDF>
  </metadata>
  <g
     style="opacity:0.98000004"
     transform="translate(302.67152,-169.12884)"
     id="layer1">
    <path
       id="path1431"
       d="m -302.67152,169.12884 c -0.92605,-1.78205 -2.48346,-3.13316 -3.50879,-4.85665 -1.58058,-2.57356 -3.20334,-5.11967 -4.44234,-7.88345 -2.25631,-4.85258 -3.89471,-10.02572 -4.63051,-15.33194 -0.48067,-3.83497 1.29452,-7.8355 4.4102,-10.08968 1.95936,-1.30808 4.17347,-2.12191 6.47304,-2.58692 1.44385,-0.66233 3.08455,-0.8809 3.65882,1.00053 1.90738,3.37704 4.07654,6.60799 6.06979,9.94024 2.83654,4.59664 5.67052,9.19505 8.4537,13.82427 -2.89539,1.98679 -5.91142,3.83932 -8.39564,6.35308 -2.82291,2.40293 -5.23901,5.2439 -7.20507,8.38431 -0.29022,0.39484 -0.58301,0.96312 -0.8832,1.24621 z"
       style="fill:#000000;stroke-width:0.03934124" />
  </g>
</svg>
